<?xml version="1.0" encoding="utf-8"?>
<!-- Generator: Adobe Illustrator 27.2.0, SVG Export Plug-In . SVG Version: 6.00 Build 0)  -->
<svg version="1.1" id="Layer_1" xmlns="http://www.w3.org/2000/svg" xmlns:xlink="http://www.w3.org/1999/xlink" x="0px" y="0px"
	 viewBox="0 0 230 88" style="enable-background:new 0 0 230 88;" xml:space="preserve">
<style type="text/css">
	.st0{fill:#10069F;}
	.st1{fill:#4EC3E0;}
	.st2{fill:url(#SVGID_1_);}
</style>
<g>
	<g>
		<path class="st0" d="M110.84,52.97h-1.76v-5.71h1.76c1.73,0,2.81,1.09,2.81,2.85C113.65,51.87,112.57,52.97,110.84,52.97
			 M110.26,51.81h0.65c1.01,0,1.54-0.58,1.54-1.69c0-1.13-0.52-1.7-1.54-1.7h-0.65V51.81z"/>
		<polygon class="st0" points="106.87,52.97 103.01,52.97 103.01,47.26 106.87,47.26 106.87,48.41 104.19,48.41 104.19,49.55 
			106.17,49.55 106.17,50.67 104.19,50.67 104.19,51.81 106.87,51.81 		"/>
		<path class="st0" d="M74.79,52.97h-1.17V50.9c0-0.1,0-0.19,0-0.29l-0.86,2.32h-0.96l-0.86-2.32c0,0.09,0,0.19,0,0.29v2.07h-1.17
			v-5.71h1.07l1.43,3.83l1.43-3.83h1.08V52.97z"/>
		<path class="st0" d="M79.09,53.04c-1.48,0-2.43-1.15-2.43-2.93c0-1.78,0.95-2.92,2.43-2.92c1.47,0,2.43,1.15,2.43,2.92
			C81.51,51.89,80.56,53.04,79.09,53.04 M79.09,48.35c-1.09,0-1.21,1.23-1.21,1.75c0,0.66,0.16,1.76,1.21,1.76
			c1.09,0,1.2-1.23,1.2-1.76C80.29,49.45,80.14,48.35,79.09,48.35"/>
		<polygon class="st0" points="87.77,52.97 86.59,52.97 86.59,50.63 84.57,50.63 84.57,52.97 83.39,52.97 83.39,47.26 84.57,47.26 
			84.57,49.48 86.59,49.48 86.59,47.26 87.77,47.26 		"/>
		<path class="st0" d="M94.22,52.97h-1.28l-0.47-1.43h-1.54l-0.48,1.43h-1.26l1.99-5.71h1.04L94.22,52.97z M91.29,50.41h0.8
			l-0.4-1.21L91.29,50.41z"/>
		<path class="st0" d="M100.64,52.97h-1.17V50.9c0-0.1,0-0.19,0-0.29l-0.86,2.32h-0.96l-0.86-2.32c0,0.09,0,0.19,0,0.29v2.07h-1.17
			v-5.71h1.07l1.43,3.83l1.43-3.83h1.08V52.97z"/>
		<path class="st0" d="M120.92,52.97h-2.43v-5.71h2.34c1.08,0,1.8,0.68,1.8,1.69c0,0.4-0.14,0.77-0.4,1.04
			c0.34,0.29,0.53,0.72,0.53,1.24C122.77,52.09,122.19,52.97,120.92,52.97 M119.68,51.8h1.12c0.69,0,0.77-0.32,0.77-0.56
			c0-0.26-0.08-0.61-0.77-0.61h-1.12V51.8z M119.68,49.49h1.1c0.31,0,0.68-0.09,0.68-0.53c0-0.45-0.37-0.55-0.68-0.55h-1.1V49.49z"
			/>
		<rect x="124.62" y="47.26" class="st0" width="1.19" height="5.71"/>
		<polygon class="st0" points="132.26,52.97 131.22,52.97 129.2,49.67 129.2,52.97 128.02,52.97 128.02,47.26 129.06,47.26 
			131.09,50.55 131.09,47.26 132.26,47.26 		"/>
		<polygon class="st0" points="140.91,52.97 136.99,52.97 136.99,52.1 139.36,48.4 136.99,48.4 136.99,47.26 140.94,47.26 
			140.94,48.13 138.57,51.81 140.91,51.81 		"/>
		<path class="st0" d="M147.01,52.97h-1.28l-0.47-1.43h-1.54l-0.48,1.43h-1.26l1.99-5.71H145L147.01,52.97z M144.09,50.41h0.8
			l-0.4-1.21L144.09,50.41z"/>
		<polygon class="st0" points="150.14,52.97 148.95,52.97 148.95,50.76 147.1,47.26 148.45,47.26 149.55,49.44 150.64,47.26 
			151.99,47.26 150.14,50.76 		"/>
		<polygon class="st0" points="157.16,52.97 153.3,52.97 153.3,47.26 157.16,47.26 157.16,48.41 154.48,48.41 154.48,49.55 
			156.46,49.55 156.46,50.67 154.48,50.67 154.48,51.81 157.16,51.81 		"/>
		<path class="st0" d="M160.77,52.97h-1.76v-5.71h1.76c1.73,0,2.81,1.09,2.81,2.85C163.58,51.87,162.5,52.97,160.77,52.97
			 M160.19,51.81h0.65c1.01,0,1.54-0.58,1.54-1.69c0-1.13-0.52-1.7-1.54-1.7h-0.65V51.81z"/>
		<polygon class="st0" points="186.35,52.97 185.27,52.97 183.26,47.26 184.54,47.26 185.8,51.04 187.07,47.26 188.35,47.26 		"/>
		<path class="st0" d="M169.88,53.04c-1.36,0-2.21-0.84-2.21-2.2v-3.58h1.18v3.54c0,0.77,0.3,1.08,1.03,1.08
			c0.73,0,1.03-0.31,1.03-1.08v-3.54h1.18v3.58C172.09,52.2,171.24,53.04,169.88,53.04"/>
		<polygon class="st0" points="178.45,52.97 177.4,52.97 175.38,49.67 175.38,52.97 174.2,52.97 174.2,47.26 175.25,47.26 
			177.27,50.55 177.27,47.26 178.45,47.26 		"/>
		<rect x="180.65" y="47.26" class="st0" width="1.19" height="5.71"/>
		<polygon class="st0" points="193.62,52.97 189.76,52.97 189.76,47.26 193.62,47.26 193.62,48.41 190.94,48.41 190.94,49.55 
			192.93,49.55 192.93,50.67 190.94,50.67 190.94,51.81 193.62,51.81 		"/>
		<path class="st0" d="M199.92,52.97h-1.32l-0.97-2.02h-0.99v2.02h-1.18v-5.71h2.2c1.51,0,2.04,1,2.04,1.87
			c0,0.72-0.32,1.29-0.88,1.59L199.92,52.97z M196.65,49.82h1.06c0.56,0,0.81-0.22,0.81-0.71c0-0.48-0.26-0.7-0.81-0.7h-1.06V49.82z
			"/>
		<path class="st0" d="M203.31,53.04c-1.3,0-2.14-0.75-2.14-1.92v-0.3h1.18v0.3c0,0.52,0.33,0.79,0.97,0.79
			c0.52,0,0.84-0.21,0.84-0.57c0-0.3-0.09-0.46-0.59-0.6l-0.71-0.2c-1.02-0.29-1.54-0.84-1.54-1.65c0-1.01,0.79-1.7,1.96-1.7
			c1.21,0,2,0.7,2.02,1.78l0,0.31h-1.18l-0.01-0.3c-0.01-0.41-0.32-0.66-0.84-0.66c-0.27,0-0.72,0.07-0.72,0.54
			c0,0.24,0.1,0.38,0.7,0.55l0.7,0.2c0.97,0.27,1.44,0.82,1.44,1.71C205.39,52.32,204.54,53.04,203.31,53.04"/>
		<rect x="207.2" y="47.26" class="st0" width="1.19" height="5.71"/>
		<polygon class="st0" points="212.66,52.97 211.49,52.97 211.49,48.38 209.98,48.38 209.98,47.26 214.16,47.26 214.16,48.38 
			212.66,48.38 		"/>
		<polygon class="st0" points="217.88,52.97 216.69,52.97 216.69,50.76 214.85,47.26 216.19,47.26 217.3,49.44 218.39,47.26 
			219.74,47.26 217.88,50.76 		"/>
		<path class="st1" d="M71.86,63.9c-1.48,0-2.43-1.15-2.43-2.93c0-1.78,0.95-2.92,2.43-2.92c1.47,0,2.43,1.15,2.43,2.92
			C74.29,62.76,73.34,63.9,71.86,63.9 M71.86,59.22c-1.09,0-1.21,1.23-1.21,1.75c0,0.66,0.16,1.76,1.21,1.76
			c1.09,0,1.21-1.23,1.21-1.76C73.07,60.32,72.91,59.22,71.86,59.22"/>
		<polygon class="st1" points="77.34,63.83 76.16,63.83 76.16,58.12 79.95,58.12 79.95,59.28 77.34,59.28 77.34,60.67 79.73,60.67 
			79.73,61.81 77.34,61.81 		"/>
		<polygon class="st1" points="165.77,63.82 162.42,63.82 162.42,58.11 163.6,58.11 163.6,62.66 165.77,62.66 		"/>
		<path class="st1" d="M89,63.83h-1.28l-0.47-1.43H85.7l-0.48,1.43h-1.26l1.99-5.71h1.04L89,63.83z M86.08,61.28h0.8l-0.4-1.21
			L86.08,61.28z"/>
		<path class="st1" d="M94.87,63.82h-1.32l-0.97-2.02h-0.99v2.02h-1.18v-5.71h2.2c1.51,0,2.04,1,2.04,1.87
			c0,0.72-0.32,1.29-0.88,1.59L94.87,63.82z M91.59,60.68h1.07c0.56,0,0.81-0.22,0.81-0.71c0-0.48-0.26-0.71-0.81-0.71h-1.07V60.68z
			"/>
		<polygon class="st1" points="98.5,63.82 97.33,63.82 97.33,59.24 95.82,59.24 95.82,58.11 100,58.11 100,59.24 98.5,59.24 		"/>
		<rect x="101.59" y="58.11" class="st1" width="1.19" height="5.71"/>
		<polygon class="st1" points="106.17,63.82 104.99,63.82 104.99,58.11 108.78,58.11 108.78,59.27 106.17,59.27 106.17,60.66 
			108.56,60.66 108.56,61.79 106.17,61.79 		"/>
		<rect x="110.46" y="58.11" class="st1" width="1.19" height="5.71"/>
		<path class="st1" d="M115.97,63.89c-1.49,0-2.45-1.15-2.45-2.93c0-1.78,0.96-2.92,2.45-2.92c1.27,0,2.18,0.82,2.27,2.04l0.02,0.32
			h-1.21l-0.03-0.27c-0.06-0.59-0.44-0.93-1.04-0.93c-1.07,0-1.23,1.1-1.23,1.75c0,0.66,0.16,1.76,1.23,1.76
			c0.6,0,0.98-0.34,1.04-0.93l0.03-0.27h1.21l-0.02,0.32C118.15,63.07,117.24,63.89,115.97,63.89"/>
		<rect x="120" y="58.11" class="st1" width="1.19" height="5.71"/>
		<path class="st1" d="M127.65,63.82h-1.28l-0.47-1.43h-1.54l-0.48,1.43h-1.26l1.99-5.71h1.04L127.65,63.82z M124.73,61.27h0.8
			l-0.4-1.21L124.73,61.27z"/>
		<polygon class="st1" points="132.39,63.82 129.05,63.82 129.05,58.11 130.23,58.11 130.23,62.66 132.39,62.66 		"/>
		<rect x="136.96" y="58.11" class="st1" width="1.19" height="5.71"/>
		<polygon class="st1" points="144.61,63.82 143.56,63.82 141.54,60.52 141.54,63.82 140.36,63.82 140.36,58.11 141.41,58.11 
			143.43,61.41 143.43,58.11 144.61,58.11 		"/>
		<polygon class="st1" points="148.87,63.82 147.7,63.82 147.7,59.24 146.19,59.24 146.19,58.11 150.37,58.11 150.37,59.24 
			148.87,59.24 		"/>
		<polygon class="st1" points="155.82,63.82 151.96,63.82 151.96,58.11 155.82,58.11 155.82,59.27 153.14,59.27 153.14,60.4 
			155.13,60.4 155.13,61.53 153.14,61.53 153.14,62.66 155.82,62.66 		"/>
		<polygon class="st1" points="161,63.82 157.66,63.82 157.66,58.11 158.83,58.11 158.83,62.66 161,62.66 		"/>
		<rect x="167.38" y="58.11" class="st1" width="1.19" height="5.71"/>
		<path class="st1" d="M172.93,63.89c-1.52,0-2.46-1.11-2.46-2.9c0-1.79,0.96-2.95,2.45-2.95c1.22,0,2.17,0.84,2.25,2l0.01,0.14
			l-1.2,0l-0.02-0.11c-0.08-0.54-0.47-0.86-1.03-0.86c-1.02,0-1.24,0.96-1.24,1.77c0,0.8,0.21,1.75,1.23,1.75
			c0.33,0,0.6-0.1,0.79-0.29c0.16-0.16,0.26-0.39,0.29-0.66h-1.5v-1.15h2.73v0.84C175.23,62.92,174.3,63.89,172.93,63.89"/>
		<polygon class="st1" points="181.11,63.82 177.25,63.82 177.25,58.11 181.11,58.11 181.11,59.27 178.43,59.27 178.43,60.4 
			180.41,60.4 180.41,61.53 178.43,61.53 178.43,62.66 181.11,62.66 		"/>
		<polygon class="st1" points="187.21,63.82 186.16,63.82 184.14,60.52 184.14,63.82 182.96,63.82 182.96,58.11 184.01,58.11 
			186.03,61.41 186.03,58.11 187.21,58.11 		"/>
		<path class="st1" d="M191.52,63.89c-1.49,0-2.45-1.15-2.45-2.93c0-1.78,0.96-2.92,2.45-2.92c1.27,0,2.18,0.82,2.27,2.04l0.02,0.32
			h-1.21l-0.03-0.27c-0.06-0.59-0.44-0.93-1.04-0.93c-1.07,0-1.23,1.1-1.23,1.75c0,0.66,0.16,1.76,1.23,1.76
			c0.6,0,0.98-0.34,1.04-0.93l0.03-0.27h1.21l-0.02,0.32C193.7,63.07,192.79,63.89,191.52,63.89"/>
		<polygon class="st1" points="199.42,63.82 195.56,63.82 195.56,58.11 199.42,58.11 199.42,59.27 196.74,59.27 196.74,60.4 
			198.72,60.4 198.72,61.53 196.74,61.53 196.74,62.66 199.42,62.66 		"/>
		<path class="st0" d="M200.34,30.19h18.99v-2.25c0-1.16-0.56-1.87-1.6-2.01c-0.85-0.12-1.62,0.28-1.96,0.47l0.43,0.99
			c0.25-0.18,0.83-0.39,1.34-0.32c0.5,0.13,0.64,0.33,0.64,1.02v0.94h-17.83c-0.47,0-0.6-0.14-0.6-0.47v-4.08h-1.17v4.11
			C198.57,30.22,199.48,30.19,200.34,30.19 M217.71,31.87h1.07v-1.1h-1.07V31.87z M114.1,31.87h1.07v-1.1h-1.07V31.87z M97.98,26.14
			h1.07v-1.1h-1.07V26.14z M93.36,26.04h1.07v-1.1h-1.07V26.04z M162.43,25.26h1.07v-1.1h-1.07V25.26z M160.92,25.26H162v-1.1h-1.07
			V25.26z M88.18,31.87h1.07v-1.1h-1.07V31.87z M86.68,31.87h1.07v-1.1h-1.07V31.87z M195.07,29.15c-0.23,0-0.4-0.08-0.51-0.24
			c-0.14-0.2-0.22-0.47-0.22-0.82c0-0.37,0.08-0.61,0.23-0.81c0.14-0.18,0.29-0.25,0.51-0.25c0.22,0,0.37,0.08,0.51,0.25
			c0.15,0.18,0.22,0.43,0.22,0.8c0,0.38-0.06,0.64-0.22,0.83C195.45,29.09,195.31,29.15,195.07,29.15 M180,28.8
			c-0.1-0.11-0.25-0.37-0.5-0.9c-0.11-0.25-0.24-0.53-0.38-0.76c0.6-0.18,1.69-0.25,1.64,0.56C180.74,28.15,180.42,28.61,180,28.8
			 M195.07,30.28c0.59,0,1.07-0.22,1.41-0.64c0.32-0.38,0.5-0.92,0.5-1.55c0-0.64-0.18-1.18-0.52-1.57
			c-0.36-0.41-0.83-0.61-1.39-0.61c-0.56,0-1.03,0.2-1.38,0.61c-0.42,0.46-0.5,1.06-0.54,1.5c-0.06,0.69-0.11,1.01-0.99,1.01h-10.77
			c0.28-0.38,0.45-0.85,0.48-1.36c0.09-1.11-0.65-1.78-1.9-1.78c-0.71,0-1.76,0.32-2.3,0.73l0.13,0.96
			c0.43,0.06,0.48,0.39,0.97,1.46h-14.32c-0.59,0-0.74-0.05-0.74-0.31v-2.75h-1.44c-1.27,0-2.17,0.92-2.17,2.23
			c0,1.31,0.74,2.11,1.88,2.04c0.37-0.03,0.75-0.23,1.02-0.52c0.27,0.32,0.69,0.47,1.26,0.47h14.41c0.45,0,0.87-0.09,1.21-0.28
			c0.3,0.19,0.55,0.28,0.97,0.28h11.39c0.57,0,1.07-0.23,1.38-0.6C193.86,29.97,194.47,30.28,195.07,30.28 M161.9,29.08
			c-0.43,0-0.66-0.28-0.66-0.88c0-0.65,0.42-1.1,1.04-1.1h0.29v1.57C162.43,28.99,162.27,29.08,161.9,29.08 M155.7,29.15
			c-0.23,0-0.38-0.08-0.52-0.25c-0.14-0.19-0.2-0.45-0.2-0.8c0-0.38,0.06-0.62,0.22-0.81c0.14-0.18,0.29-0.25,0.51-0.25
			c0.22,0,0.37,0.08,0.51,0.25c0.15,0.18,0.22,0.43,0.22,0.8c0,0.38-0.06,0.64-0.22,0.83C156.09,29.08,155.93,29.15,155.7,29.15
			 M132.76,30.28c0.59,0,1.06-0.22,1.4-0.62c0.28,0.33,0.69,0.53,1.15,0.53h17.55c0.54,0,1.06-0.24,1.38-0.61l0.06,0.08
			c0.34,0.41,0.82,0.62,1.4,0.62c0.57,0,1.06-0.22,1.4-0.64c0.32-0.38,0.5-0.92,0.5-1.55c0-0.65-0.18-1.2-0.52-1.58
			c-0.36-0.39-0.83-0.6-1.38-0.6c-0.55,0-1.02,0.2-1.39,0.6c-0.34,0.39-0.54,0.94-0.54,1.58c0,0.59-0.2,0.94-0.85,0.94h-6.13v-1.1
			c0-1.16-0.56-1.87-1.61-2.01c-0.85-0.12-1.62,0.28-1.96,0.47l0.43,0.99c0.24-0.18,0.84-0.45,1.34-0.32
			c0.48,0.13,0.64,0.33,0.64,1.02v0.94H135.5c-0.65,0-0.88-0.32-0.83-0.94c0-0.64-0.18-1.18-0.52-1.58c-0.37-0.39-0.84-0.6-1.39-0.6
			s-1.03,0.2-1.38,0.6c-0.41,0.46-0.47,1.06-0.52,1.52c-0.08,0.69-0.1,1.01-0.87,1.01h-8.28c0.04-0.15,0.06-0.32,0.06-0.47v-0.76
			c0-1.05-0.48-1.73-1.36-1.91c-0.7-0.14-1.59,0.08-2.42,0.56l0.42,0.99c0.81-0.4,1.34-0.52,1.71-0.42
			c0.32,0.09,0.48,0.33,0.48,0.78v0.76c0,0.36-0.1,0.47-0.41,0.47h-2.41v1.16h12.14c0.59,0,1.08-0.22,1.39-0.59l0.05,0.05
			C131.7,30.06,132.17,30.28,132.76,30.28 M132.76,29.15c-0.22,0-0.38-0.08-0.5-0.24c-0.15-0.2-0.22-0.45-0.22-0.82
			c0-0.38,0.06-0.62,0.22-0.81c0.14-0.18,0.29-0.25,0.51-0.25c0.22,0,0.37,0.08,0.51,0.25c0.15,0.18,0.22,0.43,0.22,0.8
			c0,0.38-0.06,0.64-0.22,0.83C133.14,29.09,133,29.15,132.76,29.15 M98.67,31.73c1.16,0,1.91-0.62,2.14-1.69
			c0.19,0.1,0.43,0.15,0.7,0.15h13.82v-3.87h-1.17v2.72H101.6c-0.51,0-0.73-0.2-0.73-0.7v-2.01H99.7v3.1c0,0.8-0.28,1.1-1.03,1.1
			c-1.13,0-1.46-1.16-0.69-2.61l-1.1-0.42C95.77,29.72,96.62,31.73,98.67,31.73 M93.12,31.59c0.92,0,1.43-0.54,1.43-1.49v-3.35
			h-1.16v3.06c0,0.29-0.08,0.65-0.47,0.62c-0.14,0-0.5-0.08-0.56-0.09l-0.11,1.11C92.5,31.55,92.84,31.59,93.12,31.59 M90.63,30.2
			h1.17v-5.71h-1.17V30.2z M70.19,30.19h19.24v-3.87h-1.16v2.72H74.1c0.04-0.15,0.06-0.32,0.06-0.47v-0.76
			c0-1.05-0.48-1.73-1.38-1.91c-0.69-0.14-1.55,0.08-2.38,0.56l0.39,0.99c0.8-0.4,1.34-0.52,1.72-0.42
			c0.32,0.09,0.47,0.33,0.47,0.78v0.76c0,0.37-0.1,0.47-0.41,0.47h-2.39V30.19z"/>
		<path class="st1" d="M97.36,36.23h1.07v-1.1h-1.07V36.23z M165.23,35.94h1.07v-1.1h-1.07V35.94z M164.44,40.9h15.75
			c0.42,0,0.78-0.17,1.03-0.48c0.27,0.31,0.68,0.48,1.16,0.48h2.4v-5.71h-1.17v4.55h-1.22c-0.37,0-0.5-0.11-0.51-0.45v-4.1h-1.16
			v4.03c0,0.36-0.17,0.52-0.57,0.52h-12.09c0.03-0.11,0.04-0.22,0.04-0.32v-0.74c0-2.5-2.59-2.24-3.44-1.59l0.39,0.99
			c1.08-0.61,1.87-0.36,1.87,0.6v0.68c0,0.27-0.11,0.38-0.38,0.38h-2.1V40.9z M143.04,40.9h19.7v-2.05c0-1.08-0.76-1.78-1.94-1.78
			h-12.29l1.43-1.43l-0.74-0.84l-2.85,2.85l0.61,0.85c0.11-0.09,0.56-0.31,0.76-0.31h13.1c0.5,0,0.74,0.24,0.74,0.74v0.8h-18.5
			c-0.51,0-0.62-0.06-0.62-0.38v-4.17h-1.17v4.1C141.27,40.91,142.19,40.9,143.04,40.9 M136.71,40.89h3.45v-1.15h-1.34
			c-0.32,0-0.52-0.23-0.52-0.55c0-0.62,0.71-0.68,1.16,0.01l0.75-0.75c-1.01-1.52-3.07-0.94-3.07,0.74c0,0.19,0.04,0.37,0.1,0.55
			h-0.53V40.89z M133.12,40.9h1.17v-5.71h-1.17V40.9z M126.84,40.9h3.7c0.8,0,1.32-0.68,1.32-1.71v-4h-1.13v3.95
			c0,0.51-0.08,0.6-0.48,0.6h-0.93v-4.55h-1.17v4.55h-1.3V40.9z M122.33,39.74v-1.22c0.42-0.4,0.79-0.62,1.15-0.73
			c0.79-0.23,1.31,0.04,1.31,0.7v0.57c0,0.62-0.08,0.68-0.76,0.68H122.33z M109.36,39.74V38.5c0.36-0.36,0.76-0.61,1.13-0.71
			c0.79-0.22,1.31,0.04,1.31,0.7v0.57c0,0.56-0.13,0.68-0.73,0.68H109.36z M71.99,42.43c1.53,0,2.52-0.57,2.65-1.53h10.25v-1.16
			h-1.67c-0.47,0-0.76-0.42-0.76-1.11c0-0.59,0.28-0.92,0.75-0.92c0.32,0,0.61,0.17,0.99,0.55l0.81-0.71
			c-0.46-0.6-1.12-0.93-1.81-0.93c-1.12,0-1.95,0.84-1.95,2c0,0.38,0.09,0.78,0.25,1.12h-6.67c-0.41,0-0.84-0.32-1.47-0.99
			l-0.82,0.85c0.87,0.73,1.03,0.91,1.03,1.07c0,0.36-0.6,0.61-1.61,0.61c-1.06,0-1.53-0.41-1.48-1.24c0.03-0.41,0.2-0.79,0.61-1.29
			l-1.07-0.65c-0.09,0.1-0.68,1.08-0.71,1.91C69.26,41.57,70.21,42.43,71.99,42.43 M87.77,40.9h9.04c0.43,0,0.79-0.18,1.03-0.5
			c0.28,0.31,0.67,0.5,1.12,0.5h12.41c0.41,0,0.76-0.15,1.04-0.43c0.24,0.28,0.61,0.43,1.05,0.43h10.8c1.07,0,1.67-0.66,1.67-1.81
			v-0.78c0-1.3-1.24-2.01-2.65-1.59c-0.26,0.08-0.6,0.23-0.94,0.47v-0.51h-1.17v3.06h-7.7c-0.4,0-0.51-0.1-0.51-0.43v-0.99
			c0-1.3-1.26-2.06-2.66-1.59c-0.31,0.1-0.62,0.27-0.93,0.48v-2.01h-1.17v4.55H99c-0.36,0-0.48-0.11-0.5-0.45v-2.27h-1.17v2.19
			c0,0.37-0.17,0.52-0.56,0.52h-8.98c-0.51,0-0.62-0.06-0.62-0.38v-4.17H86v4.1C86,40.94,86.91,40.9,87.77,40.9 M72.5,44h1.07v-1.1
			H72.5V44z M71,44h1.07v-1.1H71V44z"/>
	</g>
	<g>
		<linearGradient id="SVGID_1_" gradientUnits="userSpaceOnUse" x1="10.2632" y1="44" x2="61.4286" y2="44">
			<stop  offset="0" style="stop-color:#4EC3E0"/>
			<stop  offset="1" style="stop-color:#10069F"/>
		</linearGradient>
		<path class="st2" d="M22.93,42.56c-1.64,0-2.97,1.5-2.97,3.36c0,0.76,0.23,1.45,0.6,2.01l-1.36,1.6
			c-0.49-0.37-1.08-0.58-1.71-0.53c-0.47,0.04-0.9,0.22-1.27,0.49l-1.68-2c0.22-0.45,0.35-0.98,0.35-1.56
			c0-0.59-0.14-1.13-0.36-1.59l1.61-1.97c0.36,0.26,0.78,0.43,1.24,0.47c1.49,0.11,2.81-1.17,2.94-2.86
			c0.13-1.69-0.98-3.15-2.48-3.26c-0.45-0.04-0.89,0.07-1.28,0.27l-0.95-1.62c0.08-0.1,0.17-0.21,0.24-0.32
			c0.78-1.21,0.76-2.52-0.05-2.94c-0.17-0.09-0.36-0.13-0.56-0.13c-0.76,0-1.7,0.6-2.31,1.55c-0.78,1.21-0.76,2.52,0.05,2.94
			c0.52,0.27,1.23,0.1,1.88-0.37l0.88,1.51c-0.47,0.51-0.79,1.19-0.85,1.98c-0.06,0.77,0.15,1.49,0.53,2.06l-1.52,1.86
			c-0.38-0.34-0.83-0.55-1.33-0.55c-1.28,0-2.31,1.33-2.31,2.97c0,1.64,1.04,2.97,2.31,2.97c0.51,0,0.97-0.22,1.36-0.57l1.59,1.9
			c-0.37,0.57-0.57,1.27-0.51,2.03c0.13,1.69,1.44,2.97,2.94,2.85c1.5-0.11,2.6-1.57,2.48-3.26c-0.05-0.59-0.24-1.13-0.53-1.58
			l1.35-1.59c0.48,0.37,1.06,0.59,1.68,0.59c1.64,0,2.97-1.5,2.97-3.36C25.9,44.06,24.57,42.56,22.93,42.56z M20.48,29.81
			c0.76-0.69,1.15-1.57,1.11-2.28l1.91-1.38c0.53,0.2,1.28,0.15,2.05-0.2c1.27-0.58,2.1-1.76,1.85-2.62
			c-0.15-0.54-0.7-0.84-1.39-0.84c-0.42,0-0.89,0.11-1.36,0.32c-1.26,0.58-2.09,1.74-1.86,2.61l-1.65,1.19
			c-0.68-0.53-1.94-0.28-2.94,0.64c-1.08,0.99-1.44,2.36-0.81,3.07C18.01,31.03,19.4,30.8,20.48,29.81z M31.84,37.26l2.06-1.85
			c0.55,0.34,1.21,0.55,1.94,0.55c0.72,0,1.39-0.21,1.94-0.55l2.07,1.85c-0.82,1.28-0.66,3.02,0.48,4.16
			c1.14,1.14,2.87,1.3,4.14,0.49l1.82,2.05c-0.35,0.55-0.56,1.22-0.56,1.95c0,1.85,1.33,3.36,2.97,3.36c1.64,0,2.97-1.5,2.97-3.36
			c0-1.85-1.33-3.36-2.97-3.36c-0.65,0-1.25,0.24-1.74,0.64l-1.74-1.96c1.07-1.29,0.99-3.22-0.24-4.46
			c-1.23-1.23-3.15-1.31-4.44-0.25l-1.99-1.78c0.41-0.49,0.65-1.09,0.65-1.75c0-1.64-1.5-2.97-3.36-2.97
			c-1.85,0-3.36,1.33-3.36,2.97c0,0.65,0.25,1.26,0.65,1.75l-1.99,1.78c-1.18-0.98-2.85-1.05-4.08-0.19L25.8,35
			c0.73-0.96,0.87-2.17,0.4-3.11l1.7-1.44c1.03,0.8,2.61,0.71,3.75-0.28c1.28-1.11,1.52-2.93,0.54-4.06
			c-0.5-0.57-1.21-0.86-1.96-0.86c-0.73,0-1.5,0.27-2.13,0.82c-1.12,0.97-1.44,2.49-0.84,3.61l-1.67,1.42
			c-1.09-0.88-2.79-0.72-3.92,0.44c-1.18,1.22-1.27,3.05-0.19,4.09c0.95,0.92,2.47,0.92,3.63,0.08l1.27,1.33
			c-1.01,1.32-0.91,3.21,0.31,4.44c1.33,1.33,3.46,1.34,4.78,0.03C32.58,40.36,32.72,38.58,31.84,37.26z M58.26,55.29
			c-0.49-0.23-1.14-0.07-1.74,0.36l-0.67-1.29c0.52-0.52,0.88-1.25,0.94-2.09c0.13-1.69-0.98-3.15-2.48-3.26
			C54.25,49,54.19,49,54.13,49c-1.42,0-2.63,1.24-2.76,2.86c-0.05,0.69,0.11,1.34,0.42,1.88l-1.98,2.08
			c-1.09-0.66-2.62-0.43-3.66,0.64c-1.18,1.22-1.26,3.05-0.19,4.09c0.89,0.86,2.28,0.9,3.41,0.22l1.46,1.84
			c-0.83,0.95-1.14,2.05-0.67,2.59c0.18,0.21,0.44,0.3,0.76,0.31h0.02c0.61-0.01,1.4-0.37,2.1-1.02c1.06-1,1.5-2.31,0.98-2.92
			c-0.46-0.53-1.48-0.35-2.44,0.36l-1.43-1.81c0.95-1.08,1.1-2.57,0.39-3.6l1.89-1.99c0.4,0.33,0.88,0.55,1.42,0.59
			c0.4,0.03,0.79-0.05,1.15-0.2l0.76,1.45c-0.11,0.14-0.22,0.29-0.31,0.45c-0.74,1.23-0.68,2.53,0.14,2.91
			c0.81,0.38,2.08-0.3,2.82-1.53C59.13,56.98,59.07,55.67,58.26,55.29z M59.19,42.94c-0.51,0-0.97,0.23-1.35,0.61l-1.67-1.96
			c0.36-0.56,0.56-1.26,0.5-2.01c-0.05-0.73-0.34-1.37-0.76-1.87l0.79-1.22c0.69,0.56,1.46,0.75,2.01,0.41
			c0.78-0.5,0.79-1.9,0.01-3.14c-0.6-0.95-1.47-1.52-2.21-1.52c-0.23,0-0.44,0.06-0.63,0.17c-0.79,0.49-0.79,1.9-0.01,3.14
			c0.04,0.06,0.08,0.11,0.12,0.17l-0.87,1.33c-0.42-0.24-0.9-0.37-1.4-0.33c-1.5,0.11-2.6,1.57-2.48,3.26
			c0.13,1.69,1.44,2.97,2.94,2.85c0.48-0.04,0.91-0.22,1.29-0.5l1.78,2.09c-0.19,0.44-0.31,0.94-0.31,1.48c0,1.64,1,2.97,2.24,2.97
			c1.23,0,2.24-1.33,2.24-2.97C61.43,44.27,60.43,42.94,59.19,42.94z M45.03,50.35c-1.2-1.19-3.05-1.3-4.36-0.34l-1.95-1.94
			c0.45-0.6,0.73-1.34,0.73-2.16c0-1.99-1.61-3.6-3.6-3.6c-1.99,0-3.6,1.61-3.6,3.6c0,1.99,1.61,3.6,3.6,3.6
			c0.81,0,1.55-0.28,2.15-0.73l1.95,1.95c-0.85,1.16-0.86,2.73-0.04,3.91l-1.94,1.85c-0.58-0.42-1.31-0.68-2.12-0.68
			c-1.85,0-3.36,1.33-3.36,2.97c0,1.64,1.5,2.97,3.36,2.97c1.85,0,3.36-1.33,3.36-2.97c0-0.58-0.19-1.11-0.52-1.57l1.93-1.83
			c1.32,1.03,3.22,0.96,4.43-0.25C46.35,53.8,46.35,51.67,45.03,50.35z"/>
	</g>
</g>
</svg>
