<?xml version="1.0" encoding="UTF-8"?>
<svg id="Layer_1" data-name="Layer 1" xmlns="http://www.w3.org/2000/svg" version="1.1" viewBox="0 0 694.15 139.31">
  <defs>
    <style>
      .cls-1 {
        stroke: #231f20;
        stroke-miterlimit: 10;
      }

      .cls-1, .cls-2 {
        fill: #231f20;
      }

      .cls-3 {
        fill: #000;
      }

      .cls-3, .cls-2, .cls-4 {
        stroke-width: 0px;
      }

      .cls-4 {
        fill: #fff;
      }
    </style>
  </defs>
  <path class="cls-1" d="M285.6,14.95v111.41V14.95Z"/>
  <g>
    <path class="cls-2" d="M308.28,29.41h-5.96v-2.12h14.42v2.12h-5.96v17.57h-2.5v-17.57Z"/>
    <path class="cls-2" d="M320.03,25.6h2.47v5.85l-.09,3c1.36-1.32,2.84-2.41,4.84-2.41,3.07,0,4.45,1.98,4.45,5.7v9.24h-2.47v-8.92c0-2.72-.82-3.88-2.75-3.88-1.49,0-2.52.76-3.99,2.24v10.56h-2.47v-21.37Z"/>
    <path class="cls-2" d="M335.27,39.7c0-4.75,3.2-7.67,6.56-7.67,3.72,0,5.82,2.67,5.82,6.84,0,.52-.04,1.04-.11,1.4h-9.82c.18,3.09,2.07,5.09,4.84,5.09,1.4,0,2.55-.45,3.63-1.17l.88,1.62c-1.28.84-2.83,1.51-4.82,1.51-3.89,0-6.98-2.84-6.98-7.63ZM345.47,38.51c0-2.92-1.31-4.51-3.59-4.51-2.05,0-3.88,1.65-4.18,4.51h7.78Z"/>
    <path class="cls-2" d="M355.56,44.64l1.24-1.61c1.15,1.19,2.64,2.25,4.89,2.25s3.97-1.36,3.97-3.51c0-2.27-1.57-3.8-6.1-3.8v-1.89c4.05,0,5.43-1.56,5.43-3.56,0-1.86-1.28-3.03-3.31-3.03-1.6,0-2.96.81-4.08,1.94l-1.33-1.56c1.48-1.37,3.23-2.38,5.5-2.38,3.33,0,5.72,1.77,5.72,4.86,0,2.3-1.4,3.78-3.48,4.55v.12c2.31.55,4.15,2.24,4.15,4.86,0,3.41-2.81,5.47-6.32,5.47-3.07,0-5-1.29-6.29-2.7Z"/>
    <path class="cls-2" d="M372.04,44.92h4.38v-14.09h-3.49v-1.59c1.74-.31,3.01-.77,4.07-1.4h1.88v17.08h3.95v2.05h-10.8v-2.05Z"/>
    <path class="cls-2" d="M385.44,45.31l1.22-1.62c1.27,1.02,2.55,1.73,4.3,1.73,1.91,0,2.87-1.02,2.87-2.26,0-1.5-1.72-2.16-3.33-2.76-2.04-.75-4.35-1.75-4.35-4.21,0-2.33,1.87-4.14,5.03-4.14,1.82,0,3.4.74,4.53,1.64l-1.18,1.58c-1-.74-2.04-1.3-3.33-1.3-1.84,0-2.68.98-2.68,2.09,0,1.39,1.58,1.91,3.24,2.53,2.1.79,4.45,1.65,4.45,4.42,0,2.36-1.88,4.33-5.32,4.33-2.07,0-4.07-.88-5.44-2.02Z"/>
    <path class="cls-2" d="M399.46,42.47v-8.06h-2.17v-1.87l2.28-.14.3-4.09h2.06v4.09h3.95v2.01h-3.95v8.11c0,1.78.57,2.82,2.25,2.82.52,0,1.19-.2,1.66-.39l.48,1.86c-.82.28-1.79.54-2.71.54-3.1,0-4.16-1.97-4.16-4.87Z"/>
    <path class="cls-2" d="M415.4,27.29h2.51v19.69h-2.51v-19.69Z"/>
    <path class="cls-2" d="M423.05,32.39h2.04l.21,2.1h.08c1.39-1.37,2.89-2.46,4.89-2.46,3.07,0,4.45,1.98,4.45,5.7v9.24h-2.47v-8.92c0-2.72-.82-3.88-2.75-3.88-1.49,0-2.52.76-3.99,2.24v10.56h-2.47v-14.58Z"/>
    <path class="cls-2" d="M439.9,42.47v-8.06h-2.17v-1.87l2.28-.14.3-4.09h2.06v4.09h3.95v2.01h-3.95v8.11c0,1.78.57,2.82,2.25,2.82.52,0,1.19-.2,1.66-.39l.48,1.86c-.82.28-1.79.54-2.71.54-3.1,0-4.16-1.97-4.16-4.87Z"/>
    <path class="cls-2" d="M448.1,39.7c0-4.75,3.2-7.67,6.56-7.67,3.72,0,5.82,2.67,5.82,6.84,0,.52-.04,1.04-.11,1.4h-9.82c.18,3.09,2.07,5.09,4.84,5.09,1.4,0,2.55-.45,3.63-1.17l.88,1.62c-1.28.84-2.83,1.51-4.82,1.51-3.89,0-6.98-2.84-6.98-7.63ZM458.3,38.51c0-2.92-1.31-4.51-3.59-4.51-2.05,0-3.88,1.65-4.18,4.51h7.78Z"/>
    <path class="cls-2" d="M464.06,32.39h2.04l.21,2.66h.08c1.02-1.85,2.51-3.02,4.15-3.02.65,0,1.1.08,1.56.3l-.46,2.16c-.5-.16-.83-.24-1.42-.24-1.23,0-2.7.89-3.69,3.35v9.36h-2.47v-14.58Z"/>
    <path class="cls-2" d="M474.47,32.39h2.04l.21,2.1h.08c1.39-1.37,2.89-2.46,4.89-2.46,3.07,0,4.45,1.98,4.45,5.7v9.24h-2.47v-8.92c0-2.72-.82-3.88-2.75-3.88-1.49,0-2.52.76-3.99,2.24v10.56h-2.47v-14.58Z"/>
    <path class="cls-2" d="M489.98,43.19c0-3.18,2.74-4.77,8.96-5.44,0-1.88-.63-3.68-3.01-3.68-1.69,0-3.21.8-4.35,1.56l-.97-1.69c1.34-.88,3.39-1.9,5.73-1.9,3.56,0,5.06,2.37,5.06,6v8.95h-2.04l-.21-1.74h-.08c-1.39,1.16-3.01,2.1-4.82,2.1-2.44,0-4.27-1.52-4.27-4.15ZM498.94,43.42v-4.05c-4.89.59-6.54,1.78-6.54,3.65,0,1.66,1.12,2.33,2.55,2.33s2.57-.69,3.98-1.93Z"/>
    <path class="cls-2" d="M506.02,42.47v-8.06h-2.17v-1.87l2.28-.14.3-4.09h2.06v4.09h3.95v2.01h-3.95v8.11c0,1.78.57,2.82,2.25,2.82.52,0,1.19-.2,1.66-.39l.48,1.86c-.82.28-1.79.54-2.71.54-3.1,0-4.16-1.97-4.16-4.87Z"/>
    <path class="cls-2" d="M515.27,27.8c0-.97.75-1.59,1.7-1.59s1.71.62,1.71,1.59-.75,1.59-1.71,1.59-1.7-.66-1.7-1.59ZM515.72,32.39h2.47v14.58h-2.47v-14.58Z"/>
    <path class="cls-2" d="M522.02,39.7c0-4.87,3.18-7.67,6.76-7.67s6.76,2.8,6.76,7.67-3.18,7.63-6.76,7.63-6.76-2.8-6.76-7.63ZM532.99,39.7c0-3.34-1.7-5.62-4.21-5.62s-4.21,2.27-4.21,5.62,1.7,5.58,4.21,5.58,4.21-2.24,4.21-5.58Z"/>
    <path class="cls-2" d="M539.36,32.39h2.04l.21,2.1h.08c1.39-1.37,2.89-2.46,4.89-2.46,3.07,0,4.45,1.98,4.45,5.7v9.24h-2.47v-8.92c0-2.72-.82-3.88-2.75-3.88-1.49,0-2.52.76-3.99,2.24v10.56h-2.47v-14.58Z"/>
    <path class="cls-2" d="M554.87,43.19c0-3.18,2.74-4.77,8.96-5.44,0-1.88-.63-3.68-3.01-3.68-1.69,0-3.21.8-4.35,1.56l-.97-1.69c1.34-.88,3.39-1.9,5.73-1.9,3.56,0,5.06,2.37,5.06,6v8.95h-2.04l-.21-1.74h-.08c-1.39,1.16-3.01,2.1-4.82,2.1-2.44,0-4.27-1.52-4.27-4.15ZM563.83,43.42v-4.05c-4.89.59-6.54,1.78-6.54,3.65,0,1.66,1.12,2.33,2.55,2.33s2.57-.69,3.98-1.93Z"/>
    <path class="cls-2" d="M570.9,44.05v-18.44h2.47v18.62c0,.75.33,1.05.69,1.05.14,0,.26,0,.54-.06l.33,1.88c-.35.13-.77.23-1.42.23-1.85,0-2.61-1.18-2.61-3.29Z"/>
    <path class="cls-2" d="M303.04,69.15c0-6.35,3.74-10.22,8.74-10.22,2.39,0,4.26,1.16,5.42,2.43l-1.37,1.63c-1.04-1.11-2.34-1.86-4-1.86-3.72,0-6.19,3.05-6.19,7.95s2.36,8.05,6.1,8.05c1.88,0,3.31-.82,4.56-2.21l1.37,1.57c-1.55,1.81-3.48,2.84-6.04,2.84-4.9,0-8.58-3.79-8.58-10.19Z"/>
    <path class="cls-2" d="M320,71.7c0-4.87,3.18-7.67,6.76-7.67s6.76,2.8,6.76,7.67-3.18,7.63-6.76,7.63-6.76-2.8-6.76-7.63ZM330.97,71.7c0-3.34-1.7-5.62-4.21-5.62s-4.21,2.27-4.21,5.62,1.7,5.58,4.21,5.58,4.21-2.24,4.21-5.58Z"/>
    <path class="cls-2" d="M337.34,64.39h2.04l.21,2.1h.08c1.39-1.37,2.89-2.46,4.89-2.46,3.07,0,4.45,1.98,4.45,5.7v9.24h-2.47v-8.92c0-2.72-.82-3.88-2.75-3.88-1.49,0-2.52.76-3.99,2.24v10.56h-2.47v-14.58Z"/>
    <path class="cls-2" d="M352.18,64.54l2.09-.14h5.45v2.01h-7.54v-1.87ZM354.16,62.09c0-2.96,1.35-4.85,4.27-4.85.89,0,1.76.22,2.42.5l-.52,1.88c-.56-.26-1.13-.38-1.65-.38-1.38,0-2.05.96-2.05,2.85v16.88h-2.47v-16.89Z"/>
    <path class="cls-2" d="M361.13,71.7c0-4.75,3.2-7.67,6.56-7.67,3.72,0,5.82,2.67,5.82,6.84,0,.52-.04,1.04-.11,1.4h-9.82c.18,3.09,2.07,5.09,4.84,5.09,1.4,0,2.55-.45,3.63-1.17l.88,1.62c-1.28.84-2.83,1.51-4.82,1.51-3.89,0-6.98-2.84-6.98-7.63ZM371.33,70.51c0-2.92-1.31-4.51-3.59-4.51-2.05,0-3.88,1.65-4.18,4.51h7.78Z"/>
    <path class="cls-2" d="M377.09,64.39h2.04l.21,2.66h.08c1.02-1.85,2.51-3.02,4.15-3.02.65,0,1.1.08,1.56.3l-.46,2.16c-.5-.16-.83-.24-1.42-.24-1.23,0-2.7.89-3.69,3.35v9.36h-2.47v-14.58Z"/>
    <path class="cls-2" d="M386.12,71.7c0-4.75,3.2-7.67,6.56-7.67,3.72,0,5.82,2.67,5.82,6.84,0,.52-.04,1.04-.11,1.4h-9.82c.18,3.09,2.07,5.09,4.84,5.09,1.4,0,2.55-.45,3.63-1.17l.88,1.62c-1.28.84-2.83,1.51-4.82,1.51-3.89,0-6.98-2.84-6.98-7.63ZM396.32,70.51c0-2.92-1.31-4.51-3.59-4.51-2.05,0-3.88,1.65-4.18,4.51h7.78Z"/>
    <path class="cls-2" d="M402.08,64.39h2.04l.21,2.1h.08c1.39-1.37,2.89-2.46,4.89-2.46,3.07,0,4.45,1.98,4.45,5.7v9.24h-2.47v-8.92c0-2.72-.82-3.88-2.75-3.88-1.49,0-2.52.76-3.99,2.24v10.56h-2.47v-14.58Z"/>
    <path class="cls-2" d="M417.41,71.7c0-4.87,3.29-7.67,7.02-7.67,1.91,0,3.24.79,4.27,1.71l-1.26,1.63c-.85-.77-1.75-1.29-2.89-1.29-2.64,0-4.58,2.27-4.58,5.62s1.83,5.58,4.51,5.58c1.33,0,2.51-.65,3.42-1.45l1.07,1.65c-1.31,1.17-2.96,1.85-4.71,1.85-3.88,0-6.84-2.8-6.84-7.63Z"/>
    <path class="cls-2" d="M430.46,71.7c0-4.75,3.2-7.67,6.56-7.67,3.72,0,5.82,2.67,5.82,6.84,0,.52-.04,1.04-.11,1.4h-9.82c.18,3.09,2.07,5.09,4.84,5.09,1.4,0,2.55-.45,3.63-1.17l.88,1.62c-1.28.84-2.83,1.51-4.82,1.51-3.89,0-6.98-2.84-6.98-7.63ZM440.66,70.51c0-2.92-1.31-4.51-3.59-4.51-2.05,0-3.88,1.65-4.18,4.51h7.78Z"/>
    <path class="cls-2" d="M451.34,71.7c0-4.87,3.18-7.67,6.76-7.67s6.76,2.8,6.76,7.67-3.18,7.63-6.76,7.63-6.76-2.8-6.76-7.63ZM462.31,71.7c0-3.34-1.7-5.62-4.21-5.62s-4.21,2.27-4.21,5.62,1.7,5.58,4.21,5.58,4.21-2.24,4.21-5.58Z"/>
    <path class="cls-2" d="M468.69,64.39h2.04l.21,2.1h.08c1.39-1.37,2.89-2.46,4.89-2.46,3.07,0,4.45,1.98,4.45,5.7v9.24h-2.47v-8.92c0-2.72-.82-3.88-2.75-3.88-1.49,0-2.52.76-3.99,2.24v10.56h-2.47v-14.58Z"/>
    <path class="cls-2" d="M490.18,69.15c0-6.35,3.74-10.22,8.74-10.22,2.39,0,4.26,1.16,5.42,2.43l-1.37,1.63c-1.04-1.11-2.34-1.86-4-1.86-3.72,0-6.19,3.05-6.19,7.95s2.36,8.05,6.1,8.05c1.88,0,3.31-.82,4.56-2.21l1.37,1.57c-1.55,1.81-3.48,2.84-6.04,2.84-4.9,0-8.58-3.79-8.58-10.19Z"/>
    <path class="cls-2" d="M507.14,71.7c0-4.87,3.18-7.67,6.76-7.67s6.76,2.8,6.76,7.67-3.18,7.63-6.76,7.63-6.76-2.8-6.76-7.63ZM518.11,71.7c0-3.34-1.7-5.62-4.21-5.62s-4.21,2.27-4.21,5.62,1.7,5.58,4.21,5.58,4.21-2.24,4.21-5.58Z"/>
    <path class="cls-2" d="M524.48,64.39h2.04l.21,2.11h.08c1.28-1.38,2.8-2.47,4.54-2.47,2.23,0,3.42,1.07,4.03,2.78,1.51-1.64,3.03-2.78,4.81-2.78,3,0,4.44,1.98,4.44,5.7v9.24h-2.47v-8.92c0-2.72-.86-3.88-2.71-3.88-1.13,0-2.31.74-3.65,2.24v10.56h-2.47v-8.92c0-2.72-.86-3.88-2.71-3.88-1.09,0-2.31.74-3.66,2.24v10.56h-2.47v-14.58Z"/>
    <path class="cls-2" d="M549.35,64.39h2.04l.21,1.68h.08c1.32-1.1,2.96-2.04,4.65-2.04,3.77,0,5.78,2.92,5.78,7.43,0,4.97-2.98,7.87-6.32,7.87-1.34,0-2.7-.62-4.04-1.69l.07,2.55v4.94h-2.47v-20.73ZM559.56,71.49c0-3.22-1.1-5.38-3.84-5.38-1.24,0-2.48.68-3.9,1.99v7.64c1.32,1.11,2.59,1.52,3.55,1.52,2.41,0,4.19-2.17,4.19-5.77Z"/>
    <path class="cls-2" d="M565.81,73.63v-9.24h2.47v8.92c0,2.72.82,3.88,2.75,3.88,1.49,0,2.52-.74,3.9-2.46v-10.34h2.47v14.58h-2.04l-.21-2.28h-.08c-1.35,1.59-2.81,2.64-4.81,2.64-3.07,0-4.45-1.98-4.45-5.7Z"/>
    <path class="cls-2" d="M582.76,74.47v-8.06h-2.17v-1.87l2.28-.14.3-4.09h2.06v4.09h3.95v2.01h-3.95v8.11c0,1.78.57,2.82,2.25,2.82.52,0,1.19-.2,1.66-.39l.48,1.86c-.82.28-1.79.54-2.71.54-3.1,0-4.16-1.97-4.16-4.87Z"/>
    <path class="cls-2" d="M590.93,75.19c0-3.18,2.74-4.77,8.96-5.44,0-1.88-.63-3.68-3.01-3.68-1.69,0-3.21.8-4.35,1.56l-.97-1.69c1.34-.88,3.39-1.9,5.73-1.9,3.56,0,5.06,2.37,5.06,6v8.95h-2.04l-.21-1.74h-.08c-1.39,1.16-3.01,2.1-4.82,2.1-2.44,0-4.27-1.52-4.27-4.15ZM599.89,75.42v-4.05c-4.89.59-6.54,1.78-6.54,3.65,0,1.66,1.12,2.33,2.55,2.33s2.57-.69,3.98-1.93Z"/>
    <path class="cls-2" d="M606.97,74.47v-8.06h-2.17v-1.87l2.28-.14.3-4.09h2.06v4.09h3.95v2.01h-3.95v8.11c0,1.78.57,2.82,2.25,2.82.52,0,1.19-.2,1.66-.39l.48,1.86c-.82.28-1.79.54-2.71.54-3.1,0-4.16-1.97-4.16-4.87Z"/>
    <path class="cls-2" d="M616.22,59.8c0-.97.75-1.59,1.7-1.59s1.71.62,1.71,1.59-.75,1.59-1.71,1.59-1.7-.66-1.7-1.59ZM616.67,64.39h2.47v14.58h-2.47v-14.58Z"/>
    <path class="cls-2" d="M622.97,71.7c0-4.87,3.18-7.67,6.76-7.67s6.76,2.8,6.76,7.67-3.18,7.63-6.76,7.63-6.76-2.8-6.76-7.63ZM633.94,71.7c0-3.34-1.7-5.62-4.21-5.62s-4.21,2.27-4.21,5.62,1.7,5.58,4.21,5.58,4.21-2.24,4.21-5.58Z"/>
    <path class="cls-2" d="M640.31,64.39h2.04l.21,2.1h.08c1.39-1.37,2.89-2.46,4.89-2.46,3.07,0,4.45,1.98,4.45,5.7v9.24h-2.47v-8.92c0-2.72-.82-3.88-2.75-3.88-1.49,0-2.52.76-3.99,2.24v10.56h-2.47v-14.58Z"/>
    <path class="cls-2" d="M655.82,75.19c0-3.18,2.74-4.77,8.96-5.44,0-1.88-.63-3.68-3.01-3.68-1.69,0-3.21.8-4.35,1.56l-.97-1.69c1.34-.88,3.39-1.9,5.73-1.9,3.56,0,5.06,2.37,5.06,6v8.95h-2.04l-.21-1.74h-.08c-1.39,1.16-3.01,2.1-4.82,2.1-2.44,0-4.27-1.52-4.27-4.15ZM664.78,75.42v-4.05c-4.89.59-6.54,1.78-6.54,3.65,0,1.66,1.12,2.33,2.55,2.33s2.57-.69,3.98-1.93Z"/>
    <path class="cls-2" d="M671.84,76.05v-18.44h2.47v18.62c0,.75.33,1.05.69,1.05.14,0,.26,0,.54-.06l.33,1.88c-.35.13-.77.23-1.42.23-1.85,0-2.61-1.18-2.61-3.29Z"/>
    <path class="cls-2" d="M304.19,91.29h2.51v17.57h8.59v2.12h-11.1v-19.69Z"/>
    <path class="cls-2" d="M318.08,91.8c0-.97.75-1.59,1.7-1.59s1.71.62,1.71,1.59-.75,1.59-1.71,1.59-1.7-.66-1.7-1.59ZM318.53,96.39h2.47v14.58h-2.47v-14.58Z"/>
    <path class="cls-2" d="M325.91,96.39h2.04l.21,2.1h.08c1.39-1.37,2.89-2.46,4.89-2.46,3.07,0,4.45,1.98,4.45,5.7v9.24h-2.47v-8.92c0-2.72-.82-3.88-2.75-3.88-1.49,0-2.52.76-3.99,2.24v10.56h-2.47v-14.58Z"/>
    <path class="cls-2" d="M341.22,113.78c0-1.25.79-2.43,2.14-3.3v-.12c-.74-.46-1.3-1.24-1.3-2.39,0-1.21.85-2.18,1.6-2.71v-.12c-.97-.76-1.89-2.18-1.89-3.92,0-3.19,2.51-5.19,5.47-5.19.8,0,1.53.16,2.06.36h5.09v1.9h-2.99c.69.66,1.19,1.76,1.19,3,0,3.12-2.36,5.06-5.34,5.06-.71,0-1.51-.17-2.17-.49-.53.44-.93.92-.93,1.72,0,.93.6,1.58,2.56,1.58h2.84c3.39,0,5.09,1.06,5.09,3.48,0,2.71-2.87,5.04-7.37,5.04-3.57,0-6.03-1.4-6.03-3.91ZM352.21,113.01c0-1.35-1.02-1.81-2.94-1.81h-2.52c-.56,0-1.25-.06-1.89-.22-1.04.74-1.49,1.61-1.49,2.44,0,1.57,1.58,2.56,4.23,2.56s4.61-1.45,4.61-2.97ZM350.34,101.23c0-2.12-1.38-3.4-3.1-3.4s-3.1,1.27-3.1,3.4,1.42,3.47,3.1,3.47,3.1-1.34,3.1-3.47Z"/>
    <path class="cls-2" d="M357.25,105.63v-9.24h2.47v8.92c0,2.72.82,3.88,2.75,3.88,1.49,0,2.52-.74,3.9-2.46v-10.34h2.47v14.58h-2.04l-.21-2.28h-.08c-1.35,1.59-2.81,2.64-4.81,2.64-3.07,0-4.45-1.98-4.45-5.7Z"/>
    <path class="cls-2" d="M373.31,91.8c0-.97.75-1.59,1.7-1.59s1.71.62,1.71,1.59-.75,1.59-1.71,1.59-1.7-.66-1.7-1.59ZM373.76,96.39h2.47v14.58h-2.47v-14.58Z"/>
    <path class="cls-2" d="M379.53,109.31l1.22-1.62c1.27,1.02,2.55,1.73,4.3,1.73,1.91,0,2.87-1.02,2.87-2.26,0-1.5-1.72-2.16-3.33-2.76-2.04-.75-4.35-1.75-4.35-4.21,0-2.33,1.87-4.14,5.03-4.14,1.82,0,3.4.74,4.53,1.64l-1.18,1.58c-1-.74-2.04-1.3-3.33-1.3-1.84,0-2.68.98-2.68,2.09,0,1.39,1.58,1.91,3.24,2.53,2.1.79,4.45,1.65,4.45,4.42,0,2.36-1.88,4.33-5.32,4.33-2.07,0-4.07-.88-5.44-2.02Z"/>
    <path class="cls-2" d="M393.55,106.47v-8.06h-2.17v-1.87l2.28-.14.3-4.09h2.06v4.09h3.95v2.01h-3.95v8.11c0,1.78.57,2.82,2.25,2.82.52,0,1.19-.2,1.66-.39l.48,1.86c-.82.28-1.79.54-2.71.54-3.1,0-4.16-1.97-4.16-4.87Z"/>
    <path class="cls-2" d="M402.8,91.8c0-.97.75-1.59,1.7-1.59s1.71.62,1.71,1.59-.75,1.59-1.71,1.59-1.7-.66-1.7-1.59ZM403.25,96.39h2.47v14.58h-2.47v-14.58Z"/>
    <path class="cls-2" d="M409.55,103.7c0-4.87,3.29-7.67,7.02-7.67,1.91,0,3.24.79,4.27,1.71l-1.26,1.63c-.85-.77-1.75-1.29-2.89-1.29-2.64,0-4.58,2.27-4.58,5.62s1.83,5.58,4.51,5.58c1.33,0,2.51-.65,3.42-1.45l1.07,1.65c-1.31,1.17-2.96,1.85-4.71,1.85-3.88,0-6.84-2.8-6.84-7.63Z"/>
    <path class="cls-2" d="M422.7,109.31l1.22-1.62c1.27,1.02,2.55,1.73,4.3,1.73,1.91,0,2.87-1.02,2.87-2.26,0-1.5-1.72-2.16-3.33-2.76-2.04-.75-4.35-1.75-4.35-4.21,0-2.33,1.87-4.14,5.03-4.14,1.82,0,3.4.74,4.53,1.64l-1.18,1.58c-1-.74-2.04-1.3-3.33-1.3-1.84,0-2.68.98-2.68,2.09,0,1.39,1.58,1.91,3.24,2.53,2.1.79,4.45,1.65,4.45,4.42,0,2.36-1.88,4.33-5.32,4.33-2.07,0-4.07-.88-5.44-2.02Z"/>
  </g>
  <g>
    <path class="cls-4" d="M262.19,113.47c-.89,0-1.61.73-1.59,1.62.02.9.62,1.47,1.56,1.49.97.02,1.6-.61,1.58-1.57-.02-.86-.71-1.54-1.55-1.54Z"/>
    <path class="cls-3" d="M25.68,67.56c1.1-.03,1.68-.41,1.49-1.55-.06-.37.03-.91.28-1.16.46-.46,1.11-1.08,1.61-1.02.51.06,1.04.79,1.36,1.35.21.37.03.94.07,1.42.02.23.08.59.22.64.99.38.94,1.17.93,2.01-.03,3.25-.04,6.51,0,9.76,0,.4.4.78.57,1.19.21.48.56.99.52,1.46-.16,1.78-.45,3.54-.7,5.33h2.37c-.13-.7-.26-1.43-.39-2.16-.58-3.23.89-6.03,3.94-7.24.76-.3,1.07-.71,1.03-1.52.67-.11,1.31-.21,2.13-.34-.17,1.43.87,1.86,1.8,2.46,2.38,1.53,3.33,4.17,2.67,7.11-.11.47-.21.94-.34,1.47.38.21.76.42,1.13.62,1.77-1.03,1.8-1.04,1.33-3.04-.68-2.89-.47-5.6,1.47-8,.35-.43.76-.82,1.19-1.17,1.2-.96,2.42-1.88,3.53-2.74,1.22.94,2.57,1.91,3.83,2.97,2.43,2.05,2.95,4.77,2.55,7.76-.05.37-.12.73-.2,1.09q-.43,2.07,1.25,3.23c.35-.22.69-.44,1.12-.71-.13-.93-.3-1.91-.38-2.89-.2-2.47.73-4.49,2.85-5.75.95-.56,1.58-1.2,1.96-2.17.09-.23.26-.44.51-.85.55.66,1.02,1.24,1.52,1.8.16.18.37.35.59.43,3.42,1.2,4.75,3.87,4.17,7.61-.1.65-.16,1.31-.24,1.99h2.29c-.22-1.75-.49-3.51-.64-5.29-.04-.47.29-.99.48-1.47.17-.44.57-.87.56-1.29-.06-1.76-.24-3.52-.37-5.28-.02-.33-.03-.67,0-1,.11-1.65.23-3.31.34-4.96-.11-.03-.22-.06-.32-.09.49-.12.98-.24,1.46-.36.36-3.06.64-3.58,1.87-3.52,1.17.07,1.46.68,1.61,3.47,1.42-.07,1.19.89,1.18,1.85,0,1.17.17,2.34.27,3.51.03.33.07.67.06,1-.1,1.8-.26,3.6-.3,5.4,0,.43.41.86.55,1.31.17.55.42,1.16.32,1.68-.42,2.19-.58,4.33.06,6.53.31,1.07.26,2.26.38,3.47,1.35-.04,2.59.24,3.29,1.65.91,1.81,2.11,3.53,1.32,5.92,2.21,0,4.16.03,6.11-.04.23,0,.64-.5.64-.77,0-3.6.06-7.2-.11-10.79-.18-3.81-1.47-7.38-2.82-10.92-1.35-3.56-2.88-7.08-3.83-10.76-.77-3.02-.87-6.22-1.13-9.35-.13-1.61,1.06-2.69,2.71-2.74,3.27-.09,6.54-.16,9.81-.22,1.62-.03,2.41.76,2.38,2.48-.12,5.52,1.35,10.69,3.25,15.79.05.13.13.26.21.41.19,0,.38.02.56.03,2.27.03,2.65.47,2.77,2.73.28,5.37.64,10.74.95,16.11.07,1.29.4,2.71,0,3.86-.44,1.27-.27,2.46-.35,3.68,0,.1.05.21.12.45h6.35c-.07-.7-.16-1.44-.22-2.19-1.14-13.11-1.21-26.25-1.09-39.39.06-6.5.68-12.96,2.16-19.31.48-2.08.91-2.36,3.04-2.05.14-.36.23-.76.44-1.09.46-.73,1.12-1.18,1.96-.72,2.17,1.2,4.34,2.41,6.42,3.76.44.29.66,1.14.71,1.76.11,1.44.08,2.89.08,4.34-.01,15.26-.03,30.53-.03,45.79,0,.57-.33,1.51.99,1.16v-51.61c2.01.22,3.94.58,5.87.59,1.95,0,3.89-.35,5.96-.55v51.58c.13.07.26.14.39.21.22-.27.5-.52.63-.83.1-.25.02-.59.02-.88-.01-14.15,0-28.3-.07-42.45,0-2.07.6-3.43,2.61-4.25,1.32-.54,2.49-1.46,3.72-2.21,1.81-1.09,2.76-.7,3.32,1.34,2.37-.31,2.67-.09,3.15,2.34,1.79,9.1,2.39,18.31,2.19,27.57-.18,7.91-.49,15.81-.74,23.71-.03,1.04,0,2.08,0,3.2h4.01c.02-.29.05-.58.05-.86-.09-28.37-.17-56.74-.26-85.11,0-.96.1-1.95,1.11-2.34.95-.36,1.67.19,2.33.89,3.81,4.06,7.63,8.12,11.49,12.14,1.75,1.83,1.9,4.08,1.89,6.4-.03,22.47-.05,44.94-.08,67.4,0,.48,0,.95,0,1.5h2.85v-1.3c0-15.56,0-31.12,0-46.68,0-4.05-.02-8.1.05-12.14.03-1.46.31-2.91.47-4.37.13-.07.26-.13.38-.2,1.09.79,2.29,1.45,3.24,2.38,3.83,3.79,7.56,7.67,11.36,11.49.87.87,1.26,1.82,1.26,3.06-.02,15.45,0,30.9,0,46.35,0,.44,0,.88,0,1.4h4.12c0-2.45-.02-4.85,0-7.25.07-8.16.15-16.33.22-24.49,0-.82-.03-1.65.09-2.45.09-.55.42-1.06.65-1.58.2-.46.56-.91.59-1.38.1-1.47.74-2.02,2.22-1.9,2.03.16,4.06.28,6.1.35.66.02,1.32-.19,1.98-.25,1.11-.1,1.85.44,2.05,1.55.14.77.3,1.45.89,2.05.33.34.41,1.01.45,1.55.67,9.28.6,18.57.28,27.87-.07,1.96,0,3.92,0,5.95h2.09c0-2.74-.02-5.44,0-8.13.07-7.27.15-14.55.24-21.82.02-1.26.11-2.52.17-3.78,0-.19,0-.38.06-.55.5-1.39,1.38-2.63,1.61-4.15.04-.29.81-.61,1.28-.68.61-.08,1.25.15,1.87.14,2.03-.01,4.07.05,6.09-.15,1.98-.2,2.74.31,2.82,2.31.01.27.06.66.23.78.89.59,1.05,1.51,1.06,2.41.14,8.15.25,16.29.35,24.44.04,3.03,0,6.07,0,9.18h4.16c.34-.55.69-1.1,1.11-1.79-3.06-3.66-4.06-8.04-3.1-12.85.71-3.56,2.66-6.41,5.48-8.66,6.06-4.83,14.99-4.45,20.75.85,5.13,4.72,7.09,13.38,1.46,20.72.39.58.77,1.14,1.22,1.79,1.15,0,2.41-.01,3.68,0,1.51.02,2.28.69,2.15,2.18-.18,2.02-.47,4.04-.91,6.01-.33,1.47-1.01,1.82-2.51,1.82-83.88,0-167.76,0-251.64.02-1.21,0-2-.48-2.2-1.58-.39-2.03-.68-4.09-.87-6.15-.11-1.17.62-1.99,1.82-2.13,1.47-.17,2.95-.18,4.57-.26.03-.54.06-1.12.09-1.69.06-1.03-.03-2.12,1.07-2.75.08-.05.13-.18.15-.28.39-1.91,1.56-2.78,3.46-2.58.07-.11.13-.17.14-.23.22-2.74.45-5.48.63-8.23.03-.4-.11-.88-.32-1.23-.52-.86-.32-1.51.35-2.17.3-.29.6-.78.58-1.16-.1-1.83-.32-3.66-.49-5.49-.02-.18-.1-.41-.02-.54.93-1.7.38-3.48.25-5.36ZM118.47,38.63c-1.34,5.86-2,11.67-2.11,17.53-.11,5.79-.16,11.59.01,17.38.23,7.82.68,15.64,1.06,23.46.08,1.54.3,3.08.45,4.6h-11.12c0-2.1-.04-4.06.02-6.02.02-.74.46-1.48.43-2.2-.19-4.49-.46-8.97-.71-13.45-.09-1.69-.21-3.37-.32-5.11-1.34.07-2.72.1-3.16-1.37-1.13-3.75-2.24-7.51-3.14-11.32-.45-1.92-.43-3.95-.61-5.8-3.23,0-6.42,0-9.61,0-.65,0-.82.36-.76.94.29,2.69.25,5.46.93,8.04.93,3.53,2.35,6.93,3.65,10.35,1.6,4.2,3.1,8.43,3.24,12.98.11,3.41.02,6.83.02,10.24,0,1.9-.52,2.62-2.41,2.71-2.33.11-4.67.07-7,0-1.29-.05-1.52-.46-1.54-1.73-.03-1.33.52-2.82-.95-3.81-.16-.11-.11-.49-.2-.72-.15-.39-.33-.76-.5-1.14-.4.21-.86.34-1.18.63-.66.6-1.24,1.28-1.97,2.05-.36-3.2.21-6.12-.57-9.07-.47-1.76,0-3.76.02-5.65,0-.25-.12-.51-.2-.76-.15-.44-.42-.86-.45-1.3-.24-3.11.31-6.24-.14-9.35-.02-.11.01-.22.02-.33.05-1.13-.05-1.2-1.21-.94-.19,1.25-.51,2.48-.54,3.71-.03,1.31.36,2.63.32,3.94-.06,1.61.61,3.34-.63,4.82-.1.12.05.43.05.65-.02,1.85.06,3.72-.11,5.56-.16,1.73-1.46,2.55-2.61,1.75-.55-.38-1-.37-1.59-.3-1.45.18-2.27-.49-2.19-1.78.05-.77.22-1.54.27-2.32.07-1.14.26-2.31.06-3.41-.29-1.63-2.64-3.24-3.89-2.84-2.87.92-3.74,3.16-3.29,5.27.4,1.89.55,3.83.83,5.96-.86-.49-1.5-.84-2-1.13-.54.48-.94.94-1.43,1.26-.75.49-1.59.22-2-.52-.35-.62-.67-1.27-1.12-1.82-.92-1.14-1.07-2.37-.78-3.76.23-1.08.39-2.19.42-3.29.06-2.5-1.83-4.89-4.18-5.4-.21-.05-.49.08-.7.18-3.19,1.47-4.46,4.09-3.58,7.56.45,1.79.64,3.51-.66,5.05-.25.29-.58.53-.76.86-.95,1.7-1.86,1.78-3.08.26-.13-.16-.26-.33-.4-.5-.73.36-1.41.7-2.28,1.13.29-1.83.54-3.43.79-5.03.11-.69.29-1.39.26-2.09-.08-2.05-2.13-4.09-3.83-3.92-2.04.21-3.76,2-3.7,4.06.04,1.28.35,2.56.53,3.83.27,1.85-.6,2.67-2.42,2.36-.36-.06-.81.04-1.12.23-1.1.66-1.74.56-2.33-.54-.27-.51-.53-1.1-.55-1.66-.06-1.74,0-3.48,0-5.23,0-.22.07-.53-.04-.63-.85-.77-.64-1.78-.66-2.72-.05-2.99-.04-5.99-.1-8.99,0-.3-.35-.6-.53-.89-.27.27-.81.58-.77.82.21,1.53-.38,2.99-.15,4.57.32,2.18.53,4.57-.05,6.64-.62,2.22-.06,4.33-.33,6.46-.04.33-.12.65-.18.98-.16.85-.41,1.69-.46,2.54-.08,1.41-.02,2.82-.02,4.23,0,.34,0,.67,0,1.24-.91-.83-1.59-1.46-2.29-2.07-.74-.65-1.08-.49-1.4.44-.21.62-.64,1.17-.94,1.77-.13.25-.24.53-.25.8-.04.63-.02,1.26-.03,1.89-.02,1.53-.55,2.1-2.06,2.14-1.44.03-2.88,0-4.5,0,.27,1.95.51,3.75.76,5.59.72,0,1.24,0,1.76,0h248.85c.22,0,.45-.03.67,0,.92.17,1.26-.32,1.37-1.13.21-1.46.43-2.91.68-4.53h-6.19c-.05-.65-.09-1.16-.14-1.75h-3.98c1.21-1.21,2.36-2.21,3.33-3.36,2.76-3.3,3.84-7.1,2.83-11.32-1.78-7.42-9.34-11.82-16.77-9.87-6.56,1.73-10.63,7.62-9.9,14.31.35,3.18,1.87,5.73,4.07,7.95.72.72,1.42,1.45,2.27,2.32h-3.94c.07.11.13.22.2.33-.59.47-1.15,1.3-1.76,1.34-2.39.16-4.81.06-7.21.06-.03-.23-.06-.37-.06-.52.08-4.75.25-9.5.23-14.25-.03-6.53-.2-13.06-.34-19.59-.02-.91.1-1.91-.96-2.51-.27-.15-.28-.8-.36-1.23-.06-.34-.05-.69-.06-.93h-8.09c0,.3,0,.66,0,1.02,0,.71.23,1.55-.94,1.62-.14,0-.33.44-.36.7-.06.55-.02,1.11-.05,1.67-.55,8.87-.57,17.73-.23,26.61.09,2.43.01,4.87.01,7.31h-6.64c0-1.54-.05-2.99,0-4.43.38-10.24.59-20.49-.07-30.73-.02-.32,0-.84-.19-.93-1.15-.61-1.19-1.68-1.14-2.73h-7.92c-.27.68-.58,1.48-.92,2.26-.17.41-.55.79-.56,1.2-.2,6.01-.45,12.02-.48,18.03-.03,5.34.18,10.69.32,16.03.02.91-.41,1.38-1.2,1.4-2.4.06-4.81.02-7.33.02,0-.54,0-.98,0-1.41,0-15.97-.03-31.94,0-47.91,0-1.13-.33-1.94-1.13-2.74-3.5-3.48-6.95-7.03-10.41-10.55-.24-.24-.5-.46-.89-.81v1.44c0,19.76,0,39.51,0,59.27,0,.3.01.59,0,.89-.05,1.15-.65,1.78-1.81,1.81-.89.03-1.78,0-2.68,0-2.38,0-2.69-.3-2.69-2.68,0-11.55,0-23.1,0-34.65,0-11.59.02-23.17.03-34.76,0-1.48-.23-2.87-1.31-4.01-2.69-2.82-5.36-5.67-8.03-8.5-.98-1.04-1.96-2.07-3.01-3.17v87.77c-2.24,0-4.47.01-6.69,0-1.31-.01-1.73-.42-1.67-1.77.1-2.54.32-5.09.4-7.63.14-4.43.17-8.86.32-13.28.29-9.06.26-18.11-.97-27.12-.33-2.4-.79-4.79-1.2-7.18-.85.13-1.71.53-2.25.27-.47-.23-.59-1.2-.85-1.83-1.37.79-2.65,1.64-4.02,2.28-.94.44-1.29.96-1.28,2.02.04,14.52.03,29.04.04,43.56q0,2.9-2.9,2.9c-1.96,0-2.35-.38-2.39-2.32-.02-.74,0-1.49,0-2.23,0-15.08,0-30.15,0-45.23,0-.47,0-.94,0-1.38h-7.51v51.16c-1.37,0-2.65.13-3.87-.06-.52-.08-1.02-.8-1.37-1.34-.19-.29-.06-.8-.06-1.2,0-14.56,0-29.12,0-43.67,0-2.19,0-4.38-.03-6.57,0-.36-.11-.9-.36-1.06-1.58-1-3.22-1.92-4.89-2.9-.25.76-.46,1.41-.68,2.1-.8-.16-1.52-.3-2.38-.47Z"/>
    <path class="cls-3" d="M66.91,113.71c.15-.03.22-.05.29-.07,1.68-.32,2.76.29,3.71,1.79,1.77,2.81,3.79,5.48,5.81,8.35v-10.07h2.55v14.69c-1.9.48-2.39.31-3.48-1.26-2.09-3.01-4.17-6.03-6.38-9.23v10.59h-2.5v-14.78Z"/>
    <path class="cls-3" d="M208.64,113.85c2.78-.34,5.43-.62,8.08-.01,3.37.77,5.37,3.01,5.69,6.38.31,3.21-1.56,6.29-4.56,7.55-2.81,1.18-5.75.81-8.67.73-.19,0-.52-.41-.52-.64-.03-4.63-.02-9.26-.02-14.01ZM211.4,115.79v10.65c1.48-.13,2.9-.12,4.25-.41,2.69-.59,4-2.57,3.94-5.63-.05-2.32-1.42-3.91-4.06-4.38-1.32-.24-2.71-.16-4.13-.22Z"/>
    <path class="cls-3" d="M48.99,120.9c0,4.63-3.23,7.9-7.79,7.88-4.32-.02-7.51-3.22-7.53-7.54-.02-4.52,3.25-7.84,7.73-7.85,4.48,0,7.58,3.06,7.59,7.51ZM46.34,121.1c-.26-.95-.39-1.97-.8-2.85-.8-1.74-2.28-2.61-4.19-2.59-1.95.01-3.41.89-4.25,2.69-1.36,2.92-.39,6.49,2.15,7.65,2.84,1.3,6.82-.01,7.09-4.9Z"/>
    <path class="cls-3" d="M94.31,114.44c-.23.71-.44,1.37-.62,1.91-1.5-.17-2.91-.46-4.32-.48-3.26-.05-5.52,2.08-5.58,5.08-.06,3.09,2.13,5.27,5.44,5.35.88.02,1.76-.11,2.72-.18v-3.52h-2.99v-2.23h5.75c0,2.29.02,4.55-.02,6.8,0,.24-.3.61-.54.68-2.62.85-5.3,1.12-7.98.34-2.73-.8-4.46-2.65-4.98-5.44-.53-2.8.17-5.3,2.39-7.24,2.55-2.23,7.29-2.72,10.72-1.08Z"/>
    <path class="cls-3" d="M247.75,112.79h2.6v5.79c1.76-1.17,3.56-1.67,5.35-.88.99.43,1.98,1.22,2.58,2.11,1.49,2.19,1.01,5.59-.81,7.4-1.91,1.89-4.43,2.05-7.27.42-.05.29-.1.57-.15.89h-2.3v-15.72ZM250.39,123.26c0,1.95,1.11,3.19,2.88,3.21,1.88.02,3.1-1.31,3.11-3.4.02-2.12-1.16-3.44-3.04-3.43-1.91.01-2.95,1.28-2.95,3.62Z"/>
    <path class="cls-3" d="M180.78,112.81v5.7c1.57-1.12,3.25-1.49,4.92-.92.99.34,2.01,1.04,2.66,1.86,1.65,2.07,1.43,5.45-.27,7.44-1.79,2.1-4.38,2.36-7.61.75-.07.29-.13.56-.2.85h-2.24v-15.68h2.74ZM180.78,123.23c0,2.03,1.03,3.23,2.81,3.24,1.9.02,3.19-1.43,3.15-3.54-.03-1.96-1.24-3.29-3.02-3.29-1.96,0-2.95,1.19-2.95,3.59Z"/>
    <path class="cls-3" d="M168.35,113.67q2.87-.15,3.85,2.41c1.44,3.76,2.89,7.52,4.33,11.28.13.34.22.7.38,1.2-.85,0-1.61.06-2.36-.03-.27-.03-.6-.35-.72-.62-.46-1.05-.8-2.15-1.29-3.18-.14-.31-.6-.64-.93-.66-1.22-.08-2.45-.08-3.67,0-.33.02-.79.36-.93.67-.41.9-.76,1.85-1.02,2.81-.22.82-.64,1.15-1.49,1.03-.51-.07-1.03-.01-1.75-.01,1.89-5.03,3.75-9.95,5.61-14.88ZM169.76,116.95c-.62,1.67-1.17,3.15-1.74,4.7h3.52c-.6-1.59-1.15-3.05-1.77-4.7Z"/>
    <path class="cls-3" d="M123.51,121.52c-.36,1.38-.61,3.01-1.22,4.48-.78,1.88-2.42,2.76-4.45,2.77-1.97,0-3.44-.96-4.27-2.7-1.47-3.08-1.48-6.25-.03-9.33.94-1.99,2.64-3,4.87-2.85,2.22.14,3.65,1.43,4.3,3.47.4,1.25.51,2.6.8,4.18ZM120.77,121.37c-.25-1.3-.39-2.48-.72-3.61-.27-.94-.95-1.61-2.01-1.66-1.03-.04-1.69.57-2.06,1.44-1.05,2.51-1.06,5.05-.03,7.57.34.83,1.01,1.41,1.96,1.42,1,0,1.73-.57,2.01-1.48.37-1.22.59-2.5.85-3.68Z"/>
    <path class="cls-3" d="M234.3,128.51h-2.68c0-1.14,0-2.28,0-3.41,0-1,.04-2-.02-3-.09-1.51-.97-2.41-2.25-2.4-1.32,0-2.49,1.08-2.54,2.45-.06,1.7-.02,3.41-.02,5.12,0,.4,0,.79,0,1.24h-2.63v-15.69h2.63v5.55c.9-.35,1.65-.79,2.46-.92,2.76-.44,4.86,1.33,5.04,4.15.02.3.01.59.01.89,0,1.96,0,3.93,0,6.02Z"/>
    <path class="cls-3" d="M32.8,116.49c-1.94-.81-3.85-1.04-5.81-.44-2.49.77-3.94,3.08-3.59,5.7.37,2.75,2.29,4.57,5.01,4.57,1.46,0,2.92-.26,4.6-.42-.21-.17-.17-.15-.16-.12.8,2.4.92,2.14-1.47,2.74-1.89.47-3.84.41-5.72-.19-3.34-1.06-5.16-3.84-5.01-7.64.13-3.37,2.52-6.37,5.97-6.96,1.81-.31,3.74-.04,5.61.06,1,.06,1.45.61.94,1.64-.14.29-.22.62-.37,1.07Z"/>
    <path class="cls-3" d="M137.75,114.12h7.73v2.38h-5.65c-.13.85-.25,1.64-.37,2.48.93.1,1.78.12,2.6.28,2.39.48,3.88,2.25,3.86,4.49-.02,2.28-1.66,4.22-4.05,4.81-1.61.4-3.16.19-4.7-.3-.97-.31-1.46-.78-.86-1.82.16-.28.25-.61.3-.75,1.28.25,2.48.65,3.69.69,1.7.06,2.83-1.05,2.83-2.47,0-1.4-1.02-2.37-2.73-2.48-1.14-.07-2.29-.01-3.61-.01.16-1.19.33-2.38.48-3.57.16-1.21.31-2.42.48-3.73Z"/>
    <path class="cls-3" d="M125.6,117.69c-.35-.69-.66-1.32-1-1.98,1.6-1.41,3.45-2.06,5.54-1.8,3.33.4,5.07,3.58,3.53,6.6-.59,1.16-1.53,2.17-2.4,3.17-.7.81-1.55,1.49-2.54,2.44h5.78v2.38h-10.03c-.31-1.05-.05-1.82.82-2.58,1.75-1.54,3.46-3.14,5.05-4.84,1.36-1.44,1.5-3.09.6-4.12-.8-.93-2.74-.95-4.23-.03-.35.21-.67.46-1.13.78Z"/>
    <path class="cls-3" d="M101.2,128.49c-.26-1.05-.08-1.82.81-2.55,1.59-1.33,3.07-2.79,4.55-4.25.52-.51.96-1.14,1.3-1.79.5-.98.57-2.05-.19-2.92-.84-.97-2.03-.86-3.11-.55-.76.22-1.44.72-2.28,1.16-.21-.41-.52-.87-.67-1.37-.08-.26.01-.75.21-.9,2.02-1.48,4.24-1.96,6.59-.97,2.28.96,3.18,3.72,1.99,6.13-.5,1.01-1.29,1.89-2,2.78-.8,1.01-1.66,1.97-2.37,2.81h5.12v2.41h-9.95Z"/>
    <path class="cls-3" d="M242.5,121.17c-.4-1.95-2.35-2.2-5.15-.7-.05-.04-.12-.08-.14-.13-.78-2.03-.73-2.23,1.44-2.69,1.07-.23,2.22-.29,3.3-.17,1.84.21,3.17,1.75,3.24,3.7.08,2.4.02,4.81.02,7.34-.7-.25-1.81.71-2.47-.74-1.29.72-2.63,1.27-4.18.86-1.49-.4-2.42-1.32-2.62-2.82-.19-1.4.34-2.62,1.58-3.31.92-.51,1.98-.77,3-1.06.63-.18,1.31-.19,1.97-.27ZM242.49,123.19c-1.12.29-2.2.43-3.12.89-.38.18-.63,1.07-.55,1.58.06.36.75.81,1.21.86,1.72.22,2.72-1.02,2.47-3.33Z"/>
    <path class="cls-3" d="M191.26,117.68h2.49c0,1.2-.02,2.4,0,3.61.02,1.04,0,2.08.14,3.1.21,1.5.86,2.02,2.18,1.96,1.32-.05,2.35-.96,2.4-2.29.07-1.7.03-3.41.03-5.12,0-.4,0-.8,0-1.25h2.66v10.79h-2.28c-.05-.3-.1-.61-.13-.77-1.08.36-2.09.88-3.15,1.01-2.18.27-4.11-1.08-4.3-3.26-.23-2.56-.05-5.15-.05-7.79Z"/>
    <path class="cls-3" d="M53.43,126.11h6.61v2.37h-9.23v-14.78h2.61v12.41Z"/>
    <path class="cls-3" d="M64.11,128.51h-2.55v-14.81h2.55v14.81Z"/>
    <path class="cls-3" d="M263.44,128.53h-2.51v-10.82h2.51v10.82Z"/>
    <path class="cls-3" d="M154.91,125.23c-1.51,0-2.69-1.17-2.67-2.67.02-1.43,1.21-2.59,2.66-2.59,1.47,0,2.71,1.24,2.68,2.69-.03,1.42-1.22,2.57-2.67,2.57Z"/>
    <path class="cls-3" d="M262.19,113.47c.84,0,1.53.69,1.55,1.54.02.96-.61,1.59-1.58,1.57-.94-.02-1.54-.59-1.56-1.49-.02-.89.7-1.63,1.59-1.62Z"/>
  </g>
</svg>